<svg width="68" height="68" viewBox="0 0 68 68" fill="none" xmlns="http://www.w3.org/2000/svg">
<path d="M45.1154 34.7071C45.5059 34.3166 45.5059 33.6834 45.1154 33.2929L38.7514 26.9289C38.3609 26.5384 37.7277 26.5384 37.3372 26.9289C36.9467 27.3195 36.9467 27.9526 37.3372 28.3431L42.9941 34L37.3372 39.6569C36.9467 40.0474 36.9467 40.6805 37.3372 41.0711C37.7277 41.4616 38.3609 41.4616 38.7514 41.0711L45.1154 34.7071ZM22.8981 35L44.4083 35L44.4083 33L22.8981 33L22.8981 35Z" fill="white"/>
<path d="M62.4449 50.4227L34 66.8453L5.55516 50.4226L5.55516 17.5774L34 1.15472L62.4449 17.5774L62.4449 50.4227Z" stroke="white" stroke-width="2"/>
</svg>
