<svg width="160" height="160" viewBox="0 0 160 160" fill="none" xmlns="http://www.w3.org/2000/svg">
<path d="M78.4509 14.0283C71.9116 11.1475 64.9475 9.6875 57.7527 9.6875C42.2253 9.6875 26.134 16.5576 14.707 28.0652C5.13916 37.7002 -0.0830078 49.6436 0.0012207 61.6943C0.095215 75.0842 6.65527 87.9773 18.4717 98.0005C22.4719 101.393 26.8762 104.272 31.5125 106.571V122.073H14.093C6.32202 122.073 0 128.407 0 136.193C0 143.978 6.32202 150.312 14.093 150.312H70.5945C78.3655 150.312 84.6875 143.978 84.6875 136.193C84.6875 128.407 78.3655 122.073 70.5945 122.073H40.8875V110.327C46.2573 111.993 51.7725 112.899 57.2021 112.957C57.3889 112.958 57.5745 112.959 57.7612 112.959C64.9597 112.959 71.925 111.497 78.4717 108.61C82.9895 106.616 85.9094 102.144 85.9094 97.2131V25.4321C85.9094 20.5005 82.981 16.0242 78.4509 14.0283ZM75.3125 136.193C75.3125 138.809 73.1958 140.938 70.5945 140.938H14.093C11.4917 140.938 9.375 138.809 9.375 136.193C9.375 133.577 11.4917 131.448 14.093 131.448H70.5945C73.1958 131.448 75.3125 133.577 75.3125 136.193ZM9.37622 61.6284C9.30908 52.0935 13.5645 42.5208 21.3599 34.6704C29.7693 26.2012 41.5723 20.5542 53.064 19.3176V103.335C42.9736 102.269 32.7759 97.8406 24.5361 90.8508C14.834 82.6221 9.45068 72.2449 9.37622 61.6284ZM76.5344 97.2144C76.5344 98.4314 75.8093 99.5374 74.6887 100.032C70.7727 101.759 66.6675 102.859 62.4402 103.326V19.3188C66.665 19.7852 70.7617 20.8862 74.6716 22.6074C75.8032 23.1067 76.5344 24.2151 76.5344 25.4333V97.2144Z" fill="black"/>
<path d="M100.835 42.7456C101.184 42.7456 101.537 42.7065 101.891 42.6247L156.362 30.0893C158.885 29.5083 160.46 26.9924 159.879 24.4704C159.299 21.9473 156.783 20.3726 154.26 20.9536L99.7887 33.489C97.2655 34.0688 95.6908 36.5847 96.2718 39.1079C96.7711 41.2771 98.701 42.7456 100.835 42.7456Z" fill="black"/>
<path d="M154.26 39.7559L99.7875 52.2925C97.2655 52.8724 95.6908 55.3882 96.2707 57.9114C96.7712 60.0806 98.6999 61.5491 100.835 61.5491C101.183 61.5491 101.537 61.51 101.891 61.4283L156.362 48.8929C158.885 48.3118 160.46 45.7959 159.879 43.2727C159.299 40.7508 156.783 39.1761 154.26 39.7559Z" fill="black"/>
<path d="M154.26 58.7125L99.7875 71.2479C97.2655 71.8277 95.6908 74.3436 96.2707 76.8668C96.7712 79.036 98.6999 80.5045 100.835 80.5045C101.183 80.5045 101.537 80.4654 101.891 80.3836L156.362 67.8482C158.885 67.2672 160.46 64.7513 159.879 62.2293C159.299 59.7062 156.783 58.1327 154.26 58.7125Z" fill="black"/>
<path d="M154.26 77.5147L99.7875 90.0513C97.2655 90.6312 95.6908 93.147 96.2707 95.6702C96.7712 97.8394 98.6999 99.3067 100.835 99.3067C101.183 99.3067 101.537 99.2676 101.891 99.1871L156.362 86.6517C158.885 86.0706 160.46 83.5547 159.879 81.0315C159.299 78.5096 156.783 76.9349 154.26 77.5147Z" fill="black"/>
</svg>
