<svg width="160" height="160" viewBox="0 0 160 160" fill="none" xmlns="http://www.w3.org/2000/svg">
<path d="M136.569 23.4313C121.458 8.32156 101.369 0 80 0C58.6313 0 38.5416 8.32156 23.4313 23.4313C8.32156 38.5416 0 58.6313 0 80C0 101.369 8.32156 121.458 23.4313 136.569C38.5416 151.678 58.6313 160 80 160C101.369 160 121.458 151.678 136.569 136.569C151.678 121.458 160 101.369 160 80C160 58.6313 151.678 38.5416 136.569 23.4313ZM80 150.625C41.0572 150.625 9.375 118.943 9.375 80C9.375 41.0572 41.0572 9.375 80 9.375C118.943 9.375 150.625 41.0572 150.625 80C150.625 118.943 118.943 150.625 80 150.625Z" fill="black"/>
<path d="M80 21.5176C47.7531 21.5176 21.5178 47.7529 21.5178 79.9998C21.5178 112.247 47.7531 138.482 80 138.482C112.247 138.482 138.482 112.247 138.482 79.9998C138.482 47.7529 112.247 21.5176 80 21.5176ZM80 107.589C64.7872 107.589 52.4106 95.2126 52.4106 79.9998C52.4106 64.787 64.7872 52.4104 80 52.4104C95.2128 52.4104 107.589 64.787 107.589 79.9998C107.589 95.2126 95.2128 107.589 80 107.589ZM102.6 50.7704C99.6941 48.5182 96.4447 46.6891 92.9447 45.3766C94.5244 42.9541 95.4466 40.0657 95.4466 36.9645C95.4466 35.6788 95.2862 34.4301 94.9887 33.2351C100.986 35.162 106.486 38.2094 111.236 42.1351L102.6 50.7704ZM86.0716 36.9641C86.0716 40.312 83.3478 43.0354 80 43.0354C76.6522 43.0354 73.9284 40.312 73.9284 36.9641C73.9284 33.6163 76.6522 30.8926 80 30.8926C83.3478 30.8926 86.0716 33.6163 86.0716 36.9641ZM67.0553 45.3766C63.5553 46.6895 60.3059 48.5182 57.3997 50.7704L48.7641 42.1348C53.5144 38.2091 59.0137 35.1616 65.0112 33.2348C64.7137 34.4298 64.5534 35.6782 64.5534 36.9641C64.5534 40.0657 65.4756 42.9541 67.0553 45.3766ZM50.7706 57.3995C48.5184 60.3057 46.6894 63.5551 45.3766 67.0551C42.9541 65.4754 40.0656 64.5532 36.9644 64.5532C35.6788 64.5532 34.43 64.7135 33.235 65.011C35.1619 59.0135 38.2094 53.5138 42.135 48.7638L50.7706 57.3995ZM36.9644 73.9282C40.3122 73.9282 43.0356 76.652 43.0356 79.9998C43.0356 83.3476 40.3122 86.0713 36.9644 86.0713C33.6166 86.0713 30.8928 83.3476 30.8928 79.9998C30.8928 76.652 33.6166 73.9282 36.9644 73.9282ZM36.9644 95.4463C40.0659 95.4463 42.9544 94.5241 45.3766 92.9445C46.6894 96.4445 48.5181 99.6938 50.7706 102.6L42.135 111.236C38.2094 106.485 35.1619 100.986 33.235 94.9885C34.43 95.2857 35.6788 95.4463 36.9644 95.4463ZM57.3997 109.229C60.3059 111.481 63.5553 113.31 67.0553 114.623C65.4756 117.045 64.5534 119.934 64.5534 123.035C64.5534 124.321 64.7137 125.569 65.0112 126.764C59.0137 124.838 53.5144 121.79 48.7641 117.864L57.3997 109.229ZM73.9284 123.035C73.9284 119.688 76.6522 116.964 80 116.964C83.3478 116.964 86.0716 119.688 86.0716 123.035C86.0716 126.383 83.3478 129.107 80 129.107C76.6522 129.107 73.9284 126.383 73.9284 123.035ZM92.9447 114.623C96.4447 113.31 99.6941 111.481 102.6 109.229L111.236 117.865C106.486 121.79 100.986 124.838 94.9887 126.765C95.2862 125.57 95.4466 124.321 95.4466 123.035C95.4466 119.934 94.5244 117.045 92.9447 114.623ZM109.229 102.6C111.482 99.6938 113.311 96.4445 114.623 92.9445C117.046 94.5241 119.934 95.4463 123.036 95.4463C124.321 95.4463 125.57 95.286 126.765 94.9885C124.838 100.986 121.791 106.486 117.865 111.236L109.229 102.6ZM123.036 86.0713C119.688 86.0713 116.964 83.3476 116.964 79.9998C116.964 76.652 119.688 73.9282 123.036 73.9282C126.383 73.9282 129.107 76.652 129.107 79.9998C129.107 83.3476 126.383 86.0713 123.036 86.0713ZM123.036 64.5532C119.934 64.5532 117.046 65.4754 114.623 67.0551C113.311 63.5551 111.482 60.3057 109.229 57.3995L117.865 48.7638C121.791 53.5141 124.838 59.0135 126.765 65.011C125.57 64.7138 124.321 64.5532 123.036 64.5532Z" fill="black"/>
</svg>
