<svg width="281" height="99" viewBox="0 0 281 99" fill="none" xmlns="http://www.w3.org/2000/svg">
<path d="M0 0H231.5C258.838 0 281 22.1619 281 49.5V49.5C281 76.8381 258.838 99 231.5 99H0V0Z" fill="white"/>
<path d="M50.032 41.272V58H47.848V41.272H50.032ZM66.9062 58H64.7223L55.9383 44.68V58H53.7543V41.248H55.9383L64.7223 54.544V41.248H66.9062V58ZM79.4373 58L75.4533 51.16H72.8133V58H70.6293V41.272H76.0293C77.2933 41.272 78.3573 41.488 79.2213 41.92C80.1013 42.352 80.7573 42.936 81.1893 43.672C81.6213 44.408 81.8373 45.248 81.8373 46.192C81.8373 47.344 81.5013 48.36 80.8293 49.24C80.1733 50.12 79.1813 50.704 77.8533 50.992L82.0533 58H79.4373ZM72.8133 49.408H76.0293C77.2133 49.408 78.1013 49.12 78.6933 48.544C79.2853 47.952 79.5813 47.168 79.5813 46.192C79.5813 45.2 79.2853 44.432 78.6933 43.888C78.1173 43.344 77.2293 43.072 76.0293 43.072H72.8133V49.408ZM101.949 42.352L95.2773 58H93.0693L99.8373 42.568H90.5732V40.696H101.949V42.352ZM104.371 49.144C104.371 46.392 104.819 44.248 105.715 42.712C106.611 41.16 108.179 40.384 110.419 40.384C112.643 40.384 114.203 41.16 115.099 42.712C115.995 44.248 116.443 46.392 116.443 49.144C116.443 51.944 115.995 54.12 115.099 55.672C114.203 57.224 112.643 58 110.419 58C108.179 58 106.611 57.224 105.715 55.672C104.819 54.12 104.371 51.944 104.371 49.144ZM114.283 49.144C114.283 47.752 114.187 46.576 113.995 45.616C113.819 44.64 113.443 43.856 112.867 43.264C112.307 42.672 111.491 42.376 110.419 42.376C109.331 42.376 108.499 42.672 107.923 43.264C107.363 43.856 106.987 44.64 106.795 45.616C106.619 46.576 106.531 47.752 106.531 49.144C106.531 50.584 106.619 51.792 106.795 52.768C106.987 53.744 107.363 54.528 107.923 55.12C108.499 55.712 109.331 56.008 110.419 56.008C111.491 56.008 112.307 55.712 112.867 55.12C113.443 54.528 113.819 53.744 113.995 52.768C114.187 51.792 114.283 50.584 114.283 49.144ZM122.057 54.976L119.369 61.432H117.905L119.657 54.976H122.057ZM124.199 49.144C124.199 46.392 124.647 44.248 125.543 42.712C126.439 41.16 128.007 40.384 130.247 40.384C132.471 40.384 134.031 41.16 134.927 42.712C135.823 44.248 136.271 46.392 136.271 49.144C136.271 51.944 135.823 54.12 134.927 55.672C134.031 57.224 132.471 58 130.247 58C128.007 58 126.439 57.224 125.543 55.672C124.647 54.12 124.199 51.944 124.199 49.144ZM134.111 49.144C134.111 47.752 134.015 46.576 133.823 45.616C133.647 44.64 133.271 43.856 132.695 43.264C132.135 42.672 131.319 42.376 130.247 42.376C129.159 42.376 128.327 42.672 127.751 43.264C127.191 43.856 126.815 44.64 126.623 45.616C126.447 46.576 126.359 47.752 126.359 49.144C126.359 50.584 126.447 51.792 126.623 52.768C126.815 53.744 127.191 54.528 127.751 55.12C128.327 55.712 129.159 56.008 130.247 56.008C131.319 56.008 132.135 55.712 132.695 55.12C133.271 54.528 133.647 53.744 133.823 52.768C134.015 51.792 134.111 50.584 134.111 49.144ZM139.269 49.144C139.269 46.392 139.717 44.248 140.613 42.712C141.509 41.16 143.077 40.384 145.317 40.384C147.541 40.384 149.101 41.16 149.997 42.712C150.893 44.248 151.341 46.392 151.341 49.144C151.341 51.944 150.893 54.12 149.997 55.672C149.101 57.224 147.541 58 145.317 58C143.077 58 141.509 57.224 140.613 55.672C139.717 54.12 139.269 51.944 139.269 49.144ZM149.181 49.144C149.181 47.752 149.085 46.576 148.893 45.616C148.717 44.64 148.341 43.856 147.765 43.264C147.205 42.672 146.389 42.376 145.317 42.376C144.229 42.376 143.397 42.672 142.821 43.264C142.261 43.856 141.885 44.64 141.693 45.616C141.517 46.576 141.429 47.752 141.429 49.144C141.429 50.584 141.517 51.792 141.693 52.768C141.885 53.744 142.261 54.528 142.821 55.12C143.397 55.712 144.229 56.008 145.317 56.008C146.389 56.008 147.205 55.712 147.765 55.12C148.341 54.528 148.717 53.744 148.893 52.768C149.085 51.792 149.181 50.584 149.181 49.144ZM154.34 49.144C154.34 46.392 154.788 44.248 155.684 42.712C156.58 41.16 158.148 40.384 160.388 40.384C162.612 40.384 164.172 41.16 165.068 42.712C165.964 44.248 166.412 46.392 166.412 49.144C166.412 51.944 165.964 54.12 165.068 55.672C164.172 57.224 162.612 58 160.388 58C158.148 58 156.58 57.224 155.684 55.672C154.788 54.12 154.34 51.944 154.34 49.144ZM164.252 49.144C164.252 47.752 164.156 46.576 163.964 45.616C163.788 44.64 163.412 43.856 162.836 43.264C162.276 42.672 161.46 42.376 160.388 42.376C159.3 42.376 158.468 42.672 157.892 43.264C157.332 43.856 156.956 44.64 156.764 45.616C156.588 46.576 156.5 47.752 156.5 49.144C156.5 50.584 156.588 51.792 156.764 52.768C156.956 53.744 157.332 54.528 157.892 55.12C158.468 55.712 159.3 56.008 160.388 56.008C161.46 56.008 162.276 55.712 162.836 55.12C163.412 54.528 163.788 53.744 163.964 52.768C164.156 51.792 164.252 50.584 164.252 49.144ZM177.93 35.392L171.354 62.08H169.194L175.746 35.392H177.93ZM190.304 48.28V50.128H180.728V48.28H190.304Z" fill="#181818"/>
</svg>
