<svg width="281" height="99" viewBox="0 0 281 99" fill="none" xmlns="http://www.w3.org/2000/svg">
<path d="M0 0H231.5C258.838 0 281 22.1619 281 49.5V49.5C281 76.8381 258.838 99 231.5 99H0V0Z" fill="white"/>
<path d="M50.032 41.272V58H47.848V41.272H50.032ZM66.9062 58H64.7223L55.9383 44.68V58H53.7543V41.248H55.9383L64.7223 54.544V41.248H66.9062V58ZM79.4373 58L75.4533 51.16H72.8133V58H70.6293V41.272H76.0293C77.2933 41.272 78.3573 41.488 79.2213 41.92C80.1013 42.352 80.7573 42.936 81.1893 43.672C81.6213 44.408 81.8373 45.248 81.8373 46.192C81.8373 47.344 81.5013 48.36 80.8293 49.24C80.1733 50.12 79.1813 50.704 77.8533 50.992L82.0533 58H79.4373ZM72.8133 49.408H76.0293C77.2133 49.408 78.1013 49.12 78.6933 48.544C79.2853 47.952 79.5813 47.168 79.5813 46.192C79.5813 45.2 79.2853 44.432 78.6933 43.888C78.1173 43.344 77.2293 43.072 76.0293 43.072H72.8133V49.408ZM102.333 42.544H93.9093V48.016C94.2773 47.504 94.8213 47.088 95.5413 46.768C96.2613 46.432 97.0373 46.264 97.8693 46.264C99.1973 46.264 100.277 46.544 101.109 47.104C101.941 47.648 102.533 48.36 102.885 49.24C103.253 50.104 103.437 51.024 103.437 52C103.437 53.152 103.221 54.184 102.789 55.096C102.357 56.008 101.693 56.728 100.797 57.256C99.9173 57.784 98.8213 58.048 97.5093 58.048C95.8293 58.048 94.4693 57.616 93.4293 56.752C92.3893 55.888 91.7573 54.736 91.5333 53.296H93.6693C93.8773 54.208 94.3173 54.92 94.9893 55.432C95.6613 55.944 96.5093 56.2 97.5333 56.2C98.7973 56.2 99.7493 55.824 100.389 55.072C101.029 54.304 101.349 53.296 101.349 52.048C101.349 50.8 101.029 49.84 100.389 49.168C99.7493 48.48 98.8053 48.136 97.5573 48.136C96.7093 48.136 95.9653 48.344 95.3253 48.76C94.7013 49.16 94.2453 49.712 93.9573 50.416H91.8933V40.624H102.333V42.544ZM105.812 54.136V52.48L114.236 40.816H116.852V52.24H119.252V54.136H116.852V58H114.692V54.136H105.812ZM114.788 43.096L108.332 52.24H114.788V43.096ZM124.049 54.976L121.361 61.432H119.897L121.649 54.976H124.049ZM128.999 53.344C129.159 54.256 129.527 54.96 130.103 55.456C130.695 55.952 131.487 56.2 132.479 56.2C133.807 56.2 134.783 55.68 135.407 54.64C136.047 53.6 136.351 51.848 136.319 49.384C135.983 50.104 135.423 50.672 134.639 51.088C133.855 51.488 132.983 51.688 132.023 51.688C130.951 51.688 129.991 51.472 129.143 51.04C128.311 50.592 127.655 49.944 127.175 49.096C126.695 48.248 126.455 47.224 126.455 46.024C126.455 44.312 126.951 42.936 127.943 41.896C128.935 40.84 130.343 40.312 132.167 40.312C134.407 40.312 135.975 41.04 136.871 42.496C137.783 43.952 138.239 46.12 138.239 49C138.239 51.016 138.055 52.68 137.687 53.992C137.335 55.304 136.727 56.304 135.863 56.992C135.015 57.68 133.847 58.024 132.359 58.024C130.727 58.024 129.455 57.584 128.543 56.704C127.631 55.824 127.111 54.704 126.983 53.344H128.999ZM132.383 49.84C133.455 49.84 134.335 49.512 135.023 48.856C135.711 48.184 136.055 47.28 136.055 46.144C136.055 44.944 135.719 43.976 135.047 43.24C134.375 42.504 133.431 42.136 132.215 42.136C131.095 42.136 130.199 42.488 129.527 43.192C128.871 43.896 128.543 44.824 128.543 45.976C128.543 47.144 128.871 48.08 129.527 48.784C130.183 49.488 131.135 49.84 132.383 49.84ZM144.116 53.344C144.276 54.256 144.644 54.96 145.22 55.456C145.812 55.952 146.604 56.2 147.596 56.2C148.924 56.2 149.9 55.68 150.524 54.64C151.164 53.6 151.468 51.848 151.436 49.384C151.1 50.104 150.54 50.672 149.756 51.088C148.972 51.488 148.1 51.688 147.14 51.688C146.068 51.688 145.108 51.472 144.26 51.04C143.428 50.592 142.772 49.944 142.292 49.096C141.812 48.248 141.572 47.224 141.572 46.024C141.572 44.312 142.068 42.936 143.06 41.896C144.052 40.84 145.46 40.312 147.284 40.312C149.524 40.312 151.092 41.04 151.988 42.496C152.9 43.952 153.356 46.12 153.356 49C153.356 51.016 153.172 52.68 152.804 53.992C152.452 55.304 151.844 56.304 150.98 56.992C150.132 57.68 148.964 58.024 147.476 58.024C145.844 58.024 144.572 57.584 143.66 56.704C142.748 55.824 142.228 54.704 142.1 53.344H144.116ZM147.5 49.84C148.572 49.84 149.452 49.512 150.14 48.856C150.828 48.184 151.172 47.28 151.172 46.144C151.172 44.944 150.836 43.976 150.164 43.24C149.492 42.504 148.548 42.136 147.332 42.136C146.212 42.136 145.316 42.488 144.644 43.192C143.988 43.896 143.66 44.824 143.66 45.976C143.66 47.144 143.988 48.08 144.644 48.784C145.3 49.488 146.252 49.84 147.5 49.84ZM156.426 49.144C156.426 46.392 156.874 44.248 157.77 42.712C158.666 41.16 160.234 40.384 162.474 40.384C164.698 40.384 166.258 41.16 167.154 42.712C168.049 44.248 168.497 46.392 168.497 49.144C168.497 51.944 168.049 54.12 167.154 55.672C166.258 57.224 164.698 58 162.474 58C160.234 58 158.666 57.224 157.77 55.672C156.874 54.12 156.426 51.944 156.426 49.144ZM166.338 49.144C166.338 47.752 166.242 46.576 166.05 45.616C165.874 44.64 165.498 43.856 164.922 43.264C164.362 42.672 163.546 42.376 162.474 42.376C161.386 42.376 160.554 42.672 159.978 43.264C159.418 43.856 159.042 44.64 158.85 45.616C158.674 46.576 158.586 47.752 158.586 49.144C158.586 50.584 158.674 51.792 158.85 52.768C159.042 53.744 159.418 54.528 159.978 55.12C160.554 55.712 161.386 56.008 162.474 56.008C163.546 56.008 164.362 55.712 164.922 55.12C165.498 54.528 165.874 53.744 166.05 52.768C166.242 51.792 166.338 50.584 166.338 49.144ZM180.016 35.392L173.44 62.08H171.28L177.832 35.392H180.016ZM192.39 48.28V50.128H182.814V48.28H192.39Z" fill="#181818"/>
</svg>
