<svg width="281" height="99" viewBox="0 0 281 99" fill="none" xmlns="http://www.w3.org/2000/svg">
<path d="M0 0H231.5C258.838 0 281 22.1619 281 49.5V49.5C281 76.8381 258.838 99 231.5 99H0V0Z" fill="white"/>
<path d="M50.032 41.272V58H47.848V41.272H50.032ZM66.9062 58H64.7223L55.9383 44.68V58H53.7543V41.248H55.9383L64.7223 54.544V41.248H66.9062V58ZM79.4373 58L75.4533 51.16H72.8133V58H70.6293V41.272H76.0293C77.2933 41.272 78.3573 41.488 79.2213 41.92C80.1013 42.352 80.7573 42.936 81.1893 43.672C81.6213 44.408 81.8373 45.248 81.8373 46.192C81.8373 47.344 81.5013 48.36 80.8293 49.24C80.1733 50.12 79.1813 50.704 77.8533 50.992L82.0533 58H79.4373ZM72.8133 49.408H76.0293C77.2133 49.408 78.1013 49.12 78.6933 48.544C79.2853 47.952 79.5813 47.168 79.5813 46.192C79.5813 45.2 79.2853 44.432 78.6933 43.888C78.1173 43.344 77.2293 43.072 76.0293 43.072H72.8133V49.408ZM91.2213 45.016C91.3333 43.544 91.9013 42.392 92.9253 41.56C93.9493 40.728 95.2773 40.312 96.9093 40.312C97.9973 40.312 98.9333 40.512 99.7173 40.912C100.517 41.296 101.117 41.824 101.517 42.496C101.933 43.168 102.141 43.928 102.141 44.776C102.141 45.768 101.853 46.624 101.277 47.344C100.717 48.064 99.9813 48.528 99.0693 48.736V48.856C100.109 49.112 100.933 49.616 101.541 50.368C102.149 51.12 102.453 52.104 102.453 53.32C102.453 54.232 102.245 55.056 101.829 55.792C101.413 56.512 100.789 57.08 99.9573 57.496C99.1253 57.912 98.1253 58.12 96.9573 58.12C95.2613 58.12 93.8693 57.68 92.7812 56.8C91.6933 55.904 91.0853 54.64 90.9573 53.008H93.0693C93.1813 53.968 93.5733 54.752 94.2453 55.36C94.9173 55.968 95.8133 56.272 96.9333 56.272C98.0533 56.272 98.9013 55.984 99.4773 55.408C100.069 54.816 100.365 54.056 100.365 53.128C100.365 51.928 99.9653 51.064 99.1653 50.536C98.3653 50.008 97.1573 49.744 95.5413 49.744H94.9893V47.92H95.5653C97.0373 47.904 98.1493 47.664 98.9013 47.2C99.6533 46.72 100.029 45.984 100.029 44.992C100.029 44.144 99.7493 43.464 99.1893 42.952C98.6453 42.44 97.8613 42.184 96.8372 42.184C95.8453 42.184 95.0453 42.44 94.4373 42.952C93.8293 43.464 93.4693 44.152 93.3573 45.016H91.2213ZM108.57 48.976C107.674 48.624 106.986 48.112 106.506 47.44C106.026 46.768 105.786 45.952 105.786 44.992C105.786 44.128 106.002 43.352 106.434 42.664C106.866 41.96 107.506 41.408 108.354 41.008C109.218 40.592 110.258 40.384 111.474 40.384C112.69 40.384 113.722 40.592 114.57 41.008C115.434 41.408 116.082 41.96 116.514 42.664C116.962 43.352 117.186 44.128 117.186 44.992C117.186 45.92 116.938 46.736 116.442 47.44C115.946 48.128 115.266 48.64 114.402 48.976C115.394 49.28 116.178 49.816 116.754 50.584C117.346 51.336 117.642 52.248 117.642 53.32C117.642 54.36 117.386 55.272 116.874 56.056C116.362 56.824 115.634 57.424 114.69 57.856C113.762 58.272 112.69 58.48 111.474 58.48C110.258 58.48 109.186 58.272 108.258 57.856C107.346 57.424 106.634 56.824 106.122 56.056C105.61 55.272 105.354 54.36 105.354 53.32C105.354 52.248 105.642 51.328 106.218 50.56C106.794 49.792 107.578 49.264 108.57 48.976ZM115.074 45.256C115.074 44.28 114.754 43.528 114.114 43C113.474 42.472 112.594 42.208 111.474 42.208C110.37 42.208 109.498 42.472 108.858 43C108.218 43.528 107.898 44.288 107.898 45.28C107.898 46.176 108.226 46.896 108.882 47.44C109.554 47.984 110.418 48.256 111.474 48.256C112.546 48.256 113.41 47.984 114.066 47.44C114.738 46.88 115.074 46.152 115.074 45.256ZM111.474 49.936C110.29 49.936 109.322 50.216 108.57 50.776C107.818 51.32 107.442 52.144 107.442 53.248C107.442 54.272 107.802 55.096 108.522 55.72C109.258 56.344 110.242 56.656 111.474 56.656C112.706 56.656 113.682 56.344 114.402 55.72C115.122 55.096 115.482 54.272 115.482 53.248C115.482 52.176 115.114 51.36 114.378 50.8C113.642 50.224 112.674 49.936 111.474 49.936ZM123.159 54.976L120.471 61.432H119.007L120.759 54.976H123.159ZM128.109 53.344C128.269 54.256 128.637 54.96 129.213 55.456C129.805 55.952 130.597 56.2 131.589 56.2C132.917 56.2 133.893 55.68 134.517 54.64C135.157 53.6 135.461 51.848 135.429 49.384C135.093 50.104 134.533 50.672 133.749 51.088C132.965 51.488 132.093 51.688 131.133 51.688C130.061 51.688 129.101 51.472 128.253 51.04C127.421 50.592 126.765 49.944 126.285 49.096C125.805 48.248 125.565 47.224 125.565 46.024C125.565 44.312 126.061 42.936 127.053 41.896C128.045 40.84 129.453 40.312 131.277 40.312C133.517 40.312 135.085 41.04 135.981 42.496C136.893 43.952 137.349 46.12 137.349 49C137.349 51.016 137.165 52.68 136.797 53.992C136.445 55.304 135.837 56.304 134.973 56.992C134.125 57.68 132.957 58.024 131.469 58.024C129.837 58.024 128.565 57.584 127.653 56.704C126.741 55.824 126.221 54.704 126.093 53.344H128.109ZM131.493 49.84C132.565 49.84 133.445 49.512 134.133 48.856C134.821 48.184 135.165 47.28 135.165 46.144C135.165 44.944 134.829 43.976 134.157 43.24C133.485 42.504 132.541 42.136 131.325 42.136C130.205 42.136 129.309 42.488 128.637 43.192C127.981 43.896 127.653 44.824 127.653 45.976C127.653 47.144 127.981 48.08 128.637 48.784C129.293 49.488 130.245 49.84 131.493 49.84ZM143.226 53.344C143.386 54.256 143.754 54.96 144.33 55.456C144.922 55.952 145.714 56.2 146.706 56.2C148.034 56.2 149.01 55.68 149.634 54.64C150.274 53.6 150.578 51.848 150.546 49.384C150.21 50.104 149.65 50.672 148.866 51.088C148.082 51.488 147.21 51.688 146.25 51.688C145.178 51.688 144.218 51.472 143.37 51.04C142.538 50.592 141.882 49.944 141.402 49.096C140.922 48.248 140.682 47.224 140.682 46.024C140.682 44.312 141.178 42.936 142.17 41.896C143.162 40.84 144.57 40.312 146.394 40.312C148.634 40.312 150.202 41.04 151.098 42.496C152.01 43.952 152.466 46.12 152.466 49C152.466 51.016 152.282 52.68 151.914 53.992C151.562 55.304 150.954 56.304 150.09 56.992C149.242 57.68 148.074 58.024 146.586 58.024C144.954 58.024 143.682 57.584 142.77 56.704C141.858 55.824 141.338 54.704 141.21 53.344H143.226ZM146.61 49.84C147.682 49.84 148.562 49.512 149.25 48.856C149.938 48.184 150.282 47.28 150.282 46.144C150.282 44.944 149.946 43.976 149.274 43.24C148.602 42.504 147.658 42.136 146.442 42.136C145.322 42.136 144.426 42.488 143.754 43.192C143.098 43.896 142.77 44.824 142.77 45.976C142.77 47.144 143.098 48.08 143.754 48.784C144.41 49.488 145.362 49.84 146.61 49.84ZM155.535 49.144C155.535 46.392 155.983 44.248 156.879 42.712C157.775 41.16 159.343 40.384 161.583 40.384C163.807 40.384 165.367 41.16 166.263 42.712C167.159 44.248 167.607 46.392 167.607 49.144C167.607 51.944 167.159 54.12 166.263 55.672C165.367 57.224 163.807 58 161.583 58C159.343 58 157.775 57.224 156.879 55.672C155.983 54.12 155.535 51.944 155.535 49.144ZM165.447 49.144C165.447 47.752 165.351 46.576 165.159 45.616C164.983 44.64 164.607 43.856 164.031 43.264C163.471 42.672 162.655 42.376 161.583 42.376C160.495 42.376 159.663 42.672 159.087 43.264C158.527 43.856 158.151 44.64 157.959 45.616C157.783 46.576 157.695 47.752 157.695 49.144C157.695 50.584 157.783 51.792 157.959 52.768C158.151 53.744 158.527 54.528 159.087 55.12C159.663 55.712 160.495 56.008 161.583 56.008C162.655 56.008 163.471 55.712 164.031 55.12C164.607 54.528 164.983 53.744 165.159 52.768C165.351 51.792 165.447 50.584 165.447 49.144ZM179.125 35.392L172.549 62.08H170.389L176.941 35.392H179.125ZM191.499 48.28V50.128H181.923V48.28H191.499Z" fill="#181818"/>
</svg>
