<svg width="160" height="160" viewBox="0 0 160 160" fill="none" xmlns="http://www.w3.org/2000/svg">
<path d="M159.998 80.1483C159.998 80.0986 160 80.0492 160 79.9995C160 58.6309 151.678 38.5413 136.569 23.4314C121.459 8.32151 101.369 0 80.0005 0C58.6319 0 38.5423 8.32151 23.4324 23.4314C8.35935 38.5045 0.043461 58.5331 0.00283629 79.843V79.853C0.00252379 79.9017 0.000961304 79.9505 0.000961304 79.9995C0.000961304 101.368 8.32216 121.458 23.4321 136.568C38.5317 151.667 58.6044 159.987 79.9564 159.998C79.972 159.999 79.9874 160 80.003 160C80.0111 160 80.0195 159.999 80.0277 159.999C101.386 159.992 121.465 151.671 136.569 136.568C151.641 121.495 159.957 101.468 159.998 80.1586C159.998 80.1552 159.998 80.1514 159.998 80.1483ZM117.747 139.665L110.87 135.125C108.709 133.698 105.802 134.293 104.375 136.453C102.949 138.614 103.544 141.521 105.704 142.948L108.334 144.684C100.483 148.137 91.8898 150.199 82.8648 150.562L79.1708 143.174C78.013 140.859 75.1974 139.92 72.8818 141.078C70.5662 142.235 69.6277 145.051 70.7855 147.367L72.198 150.192C63.2612 149.205 54.8228 146.544 47.2016 142.531L47.6963 134.297C47.8516 131.712 45.8826 129.492 43.2982 129.336C40.721 129.185 38.4932 131.15 38.3379 133.735L38.1504 136.853C31.098 131.647 25.0446 125.165 20.3352 117.747L24.8752 110.871C26.3014 108.71 25.7064 105.803 23.5458 104.376C21.3852 102.95 18.4777 103.545 17.0515 105.706L15.3156 108.335C11.8631 100.484 9.80028 91.891 9.43809 82.8661L16.8252 79.1714C19.1405 78.0133 20.0787 75.1977 18.9208 72.8824C17.7627 70.5671 14.9474 69.629 12.6318 70.7868L9.8084 72.199C10.795 63.2618 13.4556 54.8231 17.4693 47.2019L25.703 47.6966C25.7986 47.7022 25.8939 47.705 25.9886 47.705C28.4486 47.705 30.5136 45.7869 30.6633 43.2985C30.8183 40.7141 28.8495 38.4935 26.2655 38.3382L23.1471 38.1507C28.3524 31.0979 34.8354 25.0442 42.2535 20.3346L49.1313 24.8749C49.9266 25.3999 50.8228 25.6508 51.7094 25.6508C53.2313 25.6508 54.7244 24.9105 55.6256 23.5452C57.0519 21.3846 56.4566 18.4771 54.2959 17.0508L51.6666 15.3152C59.5172 11.8627 68.1099 9.80026 77.1339 9.43807L80.8292 16.8258C81.6508 18.468 83.3058 19.4174 85.0251 19.4174C85.7298 19.4174 86.4451 19.258 87.1182 18.9211C89.4335 17.763 90.372 14.9474 89.2139 12.6321L87.8014 9.80807C96.7388 10.7946 105.178 13.4552 112.799 17.4696L112.306 25.7036C112.151 28.288 114.12 30.5083 116.704 30.6633C116.8 30.6692 116.895 30.6717 116.989 30.6717C119.45 30.6717 121.515 28.7533 121.664 26.2645L121.851 23.148C128.903 28.3533 134.957 34.8364 139.666 42.2544L135.125 49.1306C133.699 51.291 134.294 54.1987 136.454 55.6253C137.249 56.1506 138.146 56.4015 139.033 56.4015C140.554 56.4015 142.047 55.6616 142.949 54.2966L144.685 51.6669C148.137 59.5178 150.2 68.1109 150.562 77.1352L143.174 80.8289C140.859 81.9867 139.92 84.8023 141.078 87.1179C141.899 88.7607 143.555 89.7104 145.274 89.7104C145.979 89.7104 146.694 89.551 147.367 89.2145L150.192 87.802C149.205 96.7388 146.544 105.178 142.53 112.799L134.295 112.305C131.711 112.152 129.491 114.119 129.336 116.703C129.181 119.288 131.15 121.508 133.734 121.663L136.852 121.85C131.647 128.902 125.164 134.955 117.747 139.665Z" fill="black"/>
<path d="M80.0003 30.1245C52.4996 30.1245 30.1259 52.4984 30.1259 79.9995C30.1259 107.5 52.4996 129.874 80.0003 129.874C107.501 129.874 129.875 107.501 129.875 79.9995C129.875 52.4984 107.501 30.1245 80.0003 30.1245ZM80.0003 90.3742C74.2794 90.3742 69.6254 85.7201 69.6254 79.9995C69.6254 74.2786 74.2798 69.6246 80.0003 69.6246C85.7212 69.6246 90.3753 74.2789 90.3753 79.9995C90.3753 85.7201 85.7212 90.3742 80.0003 90.3742ZM39.5009 79.9995C39.5009 74.2996 40.6868 68.8718 42.8215 63.9471L61.0442 74.4677C60.5308 76.2242 60.2501 78.0792 60.2501 79.9995C60.2501 81.9198 60.5308 83.7745 61.0442 85.5311L42.8212 96.0516C40.6871 91.127 39.5009 85.6995 39.5009 79.9995ZM98.9562 74.4677L117.179 63.9471C119.314 68.8718 120.5 74.2996 120.5 79.9995C120.5 85.6995 119.314 91.127 117.179 96.0516L98.9562 85.5311C99.4696 83.7745 99.7502 81.9198 99.7502 79.9995C99.7502 78.0792 99.4696 76.2242 98.9562 74.4677ZM112.481 55.8344L94.2587 66.3546C91.6987 63.6806 88.3981 61.7231 84.6881 60.8162V39.7723C96.0377 41.0866 105.973 47.1097 112.481 55.8344ZM75.3129 39.7723V60.8162C71.6026 61.7231 68.3023 63.6803 65.7423 66.3546L47.5199 55.8344C54.0277 47.1097 63.9629 41.0866 75.3129 39.7723ZM47.5199 104.164L65.7423 93.6441C68.3023 96.3182 71.6026 98.2757 75.3129 99.1825V120.226C63.9629 118.912 54.0277 112.889 47.5199 104.164ZM84.6878 120.226V99.1825C88.3978 98.2757 91.6984 96.3185 94.2584 93.6441L112.481 104.164C105.973 112.889 96.0378 118.912 84.6878 120.226Z" fill="black"/>
</svg>
