<svg width="474" height="294" viewBox="0 0 474 294" fill="none" xmlns="http://www.w3.org/2000/svg">
<path d="M200.084 74.959C200.975 74.959 201.795 75.123 202.545 75.4512C203.295 75.7676 203.951 76.207 204.514 76.7695C205.076 77.332 205.51 77.9883 205.814 78.7383C206.131 79.4766 206.289 80.2676 206.289 81.1113C206.289 82.0371 206.102 82.9043 205.727 83.7129C205.363 84.5098 204.848 85.1953 204.18 85.7695C203.523 86.3438 202.762 86.7598 201.895 87.0176C202.703 87.3223 203.518 87.5801 204.338 87.791C205.158 88.0137 205.855 88.125 206.43 88.125V89.707C205.785 89.707 205.082 89.5957 204.32 89.373C203.57 89.1621 202.826 88.8691 202.088 88.4941C201.361 88.1191 200.693 87.709 200.084 87.2637C199.193 87.2637 198.373 87.1055 197.623 86.7891C196.873 86.4609 196.217 86.0156 195.654 85.4531C195.092 84.8906 194.652 84.2402 194.336 83.502C194.031 82.752 193.879 81.9551 193.879 81.1113C193.879 80.2676 194.031 79.4766 194.336 78.7383C194.652 77.9883 195.092 77.332 195.654 76.7695C196.217 76.207 196.873 75.7676 197.623 75.4512C198.373 75.123 199.193 74.959 200.084 74.959ZM200.084 76.5059C199.205 76.5059 198.42 76.7051 197.729 77.1035C197.037 77.502 196.492 78.0527 196.094 78.7559C195.695 79.4473 195.496 80.2324 195.496 81.1113C195.496 81.9902 195.695 82.7754 196.094 83.4668C196.492 84.1582 197.037 84.709 197.729 85.1191C198.42 85.5176 199.205 85.7168 200.084 85.7168C200.963 85.7168 201.748 85.5176 202.439 85.1191C203.131 84.709 203.676 84.1582 204.074 83.4668C204.473 82.7754 204.672 81.9902 204.672 81.1113C204.672 80.2324 204.473 79.4473 204.074 78.7559C203.676 78.0527 203.131 77.502 202.439 77.1035C201.748 76.7051 200.963 76.5059 200.084 76.5059ZM219.068 75.1875V82.3418C219.068 83.3613 218.852 84.2402 218.418 84.9785C217.996 85.7051 217.422 86.2617 216.695 86.6484C215.969 87.0352 215.143 87.2285 214.217 87.2285C213.303 87.2285 212.477 87.0352 211.738 86.6484C211.012 86.2617 210.432 85.7051 209.998 84.9785C209.576 84.2402 209.365 83.3613 209.365 82.3418V75.1875H210.947V82.2891C210.947 83.0859 211.094 83.7305 211.387 84.2227C211.691 84.7148 212.09 85.0723 212.582 85.2949C213.086 85.5059 213.631 85.6113 214.217 85.6113C214.803 85.5996 215.342 85.4883 215.834 85.2773C216.338 85.0547 216.736 84.7031 217.029 84.2227C217.334 83.7305 217.486 83.0859 217.486 82.2891V75.1875H219.068ZM227.295 75.2227L232.797 87H230.898L229.668 84.1875H224.148L222.9 87H221.002L226.504 75.2227H227.295ZM226.926 77.8945L224.799 82.6934H229.018L226.926 77.8945ZM236.488 75.2227V85.5059H242.975V87H234.906V75.2227H236.488ZM251.641 85.5059V87H246.086V85.5059H248.072V76.7168H246.086V75.2227H251.641V76.7168H249.654V85.5059H251.641ZM263.805 75.2227V76.7168H259.744V86.9473H258.162V76.7168H254.102V75.2227H263.805ZM275.23 75.2227L270.713 82.166V87H269.008V82.3945L264.49 75.2227H266.389L269.834 80.7773L273.332 75.2227H275.23Z" fill="white"/>
<path d="M304.416 117.923L237 156.845L169.584 117.923L169.584 40.0774L237 1.15475L304.416 40.0774L304.416 117.923Z" stroke="white" stroke-width="2"/>
<path d="M377.23 75.2227V76.7168H373.17V86.9473H371.588V76.7168H367.527V75.2227H377.23ZM384.191 75.2227C384.871 75.2227 385.521 75.3516 386.143 75.6094C386.764 75.8555 387.273 76.2422 387.672 76.7695C388.082 77.2852 388.287 77.9473 388.287 78.7559C388.287 79.4824 388.076 80.0977 387.654 80.6016C387.244 81.1055 386.717 81.4863 386.072 81.7441C385.439 81.9902 384.783 82.1133 384.104 82.1133C383.893 82.1133 383.611 82.1016 383.26 82.0781L388.744 87H386.318L381.256 82.0781V87H379.674V75.2227H384.191ZM381.256 76.7168V80.4961C381.643 80.6016 382.064 80.6836 382.521 80.7422C382.979 80.8008 383.43 80.8301 383.875 80.8301C384.766 80.8301 385.451 80.6426 385.932 80.2676C386.424 79.8926 386.67 79.3887 386.67 78.7559C386.67 78.0996 386.4 77.5957 385.861 77.2441C385.334 76.8926 384.689 76.7168 383.928 76.7168H381.256ZM400.381 75.1875V82.3418C400.381 83.3613 400.164 84.2402 399.73 84.9785C399.309 85.7051 398.734 86.2617 398.008 86.6484C397.281 87.0352 396.455 87.2285 395.529 87.2285C394.615 87.2285 393.789 87.0352 393.051 86.6484C392.324 86.2617 391.744 85.7051 391.311 84.9785C390.889 84.2402 390.678 83.3613 390.678 82.3418V75.1875H392.26V82.2891C392.26 83.0859 392.406 83.7305 392.699 84.2227C393.004 84.7148 393.402 85.0723 393.895 85.2949C394.398 85.5059 394.943 85.6113 395.529 85.6113C396.115 85.5996 396.654 85.4883 397.146 85.2773C397.65 85.0547 398.049 84.7031 398.342 84.2227C398.646 83.7305 398.799 83.0859 398.799 82.2891V75.1875H400.381ZM406.92 75.0469C407.611 75.0469 408.18 75.1465 408.625 75.3457C409.082 75.5449 409.48 75.7559 409.82 75.9785V77.6133C409.492 77.3672 409.094 77.1387 408.625 76.9277C408.156 76.7051 407.646 76.5938 407.096 76.5938C406.744 76.5938 406.375 76.6582 405.988 76.7871C405.613 76.9043 405.297 77.0977 405.039 77.3672C404.781 77.6367 404.652 77.9824 404.652 78.4043C404.652 78.873 404.822 79.2305 405.162 79.4766C405.502 79.7227 405.912 79.957 406.393 80.1797L408.01 80.918C408.818 81.2812 409.428 81.6855 409.838 82.1309C410.248 82.5762 410.453 83.168 410.453 83.9062C410.453 84.5508 410.266 85.1191 409.891 85.6113C409.516 86.0918 409.023 86.4727 408.414 86.7539C407.805 87.0352 407.137 87.1758 406.41 87.1758C405.73 87.1758 405.104 87.0586 404.529 86.8242C403.955 86.5898 403.457 86.3262 403.035 86.0332V84.3984C403.492 84.7148 404.014 85.002 404.6 85.2598C405.197 85.5059 405.871 85.6289 406.621 85.6289C407.207 85.6289 407.723 85.4824 408.168 85.1895C408.613 84.8965 408.836 84.4922 408.836 83.9766C408.836 83.6836 408.742 83.4316 408.555 83.2207C408.379 83.0098 408.162 82.8281 407.904 82.6758C407.646 82.5234 407.395 82.3945 407.148 82.2891L405.197 81.4102C404.354 81.0352 403.779 80.5957 403.475 80.0918C403.17 79.5879 403.018 79.0078 403.018 78.3516C403.018 77.7305 403.193 77.1738 403.545 76.6816C403.908 76.1777 404.389 75.7793 404.986 75.4863C405.584 75.1934 406.229 75.0469 406.92 75.0469ZM421.562 75.2227V76.7168H417.502V86.9473H415.92V76.7168H411.859V75.2227H421.562Z" fill="white"/>
<path d="M462.416 117.923L395 156.845L327.584 117.923L327.584 40.0774L395 1.15475L462.416 40.0774L462.416 117.923Z" stroke="white" stroke-width="2"/>
<path d="M272.258 210.941C273.582 210.941 274.701 211.211 275.615 211.75C276.541 212.289 277.244 213.021 277.725 213.947C278.217 214.861 278.463 215.898 278.463 217.059C278.463 218.219 278.217 219.262 277.725 220.188C277.244 221.102 276.541 221.828 275.615 222.367C274.701 222.906 273.582 223.176 272.258 223.176C271.449 223.176 270.705 223.135 270.025 223.053C269.346 222.971 268.648 222.865 267.934 222.736V211.381C268.648 211.252 269.346 211.146 270.025 211.064C270.705 210.982 271.449 210.941 272.258 210.941ZM272.258 212.436C271.836 212.436 271.385 212.453 270.904 212.488C270.424 212.512 269.961 212.553 269.516 212.611V221.506C269.961 221.553 270.424 221.594 270.904 221.629C271.385 221.664 271.836 221.682 272.258 221.682C273.207 221.682 274.021 221.482 274.701 221.084C275.393 220.674 275.92 220.123 276.283 219.432C276.658 218.729 276.846 217.938 276.846 217.059C276.846 216.18 276.658 215.395 276.283 214.703C275.92 214 275.393 213.449 274.701 213.051C274.021 212.641 273.207 212.436 272.258 212.436ZM286.83 221.506V223H281.275V221.506H283.262V212.717H281.275V211.223H286.83V212.717H284.844V221.506H286.83ZM300.734 211.223L295.232 223H294.441L288.939 211.223H290.838L294.811 220.328L298.836 211.223H300.734ZM310.156 216.215V217.709H304.426V221.506H310.912V223H302.844V211.223H310.912V212.717H304.426V216.215H310.156ZM318.77 211.223C319.449 211.223 320.1 211.352 320.721 211.609C321.342 211.855 321.852 212.242 322.25 212.77C322.66 213.285 322.865 213.947 322.865 214.756C322.865 215.482 322.654 216.098 322.232 216.602C321.822 217.105 321.295 217.486 320.65 217.744C320.018 217.99 319.361 218.113 318.682 218.113C318.471 218.113 318.189 218.102 317.838 218.078L323.322 223H320.896L315.834 218.078V223H314.252V211.223H318.77ZM315.834 212.717V216.496C316.221 216.602 316.643 216.684 317.1 216.742C317.557 216.801 318.008 216.83 318.453 216.83C319.344 216.83 320.029 216.643 320.51 216.268C321.002 215.893 321.248 215.389 321.248 214.756C321.248 214.1 320.979 213.596 320.439 213.244C319.912 212.893 319.268 212.717 318.506 212.717H315.834ZM328.279 211.047C328.971 211.047 329.539 211.146 329.984 211.346C330.441 211.545 330.84 211.756 331.18 211.979V213.613C330.852 213.367 330.453 213.139 329.984 212.928C329.516 212.705 329.006 212.594 328.455 212.594C328.104 212.594 327.734 212.658 327.348 212.787C326.973 212.904 326.656 213.098 326.398 213.367C326.141 213.637 326.012 213.982 326.012 214.404C326.012 214.873 326.182 215.23 326.521 215.477C326.861 215.723 327.271 215.957 327.752 216.18L329.369 216.918C330.178 217.281 330.787 217.686 331.197 218.131C331.607 218.576 331.812 219.168 331.812 219.906C331.812 220.551 331.625 221.119 331.25 221.611C330.875 222.092 330.383 222.473 329.773 222.754C329.164 223.035 328.496 223.176 327.77 223.176C327.09 223.176 326.463 223.059 325.889 222.824C325.314 222.59 324.816 222.326 324.395 222.033V220.398C324.852 220.715 325.373 221.002 325.959 221.26C326.557 221.506 327.23 221.629 327.98 221.629C328.566 221.629 329.082 221.482 329.527 221.189C329.973 220.896 330.195 220.492 330.195 219.977C330.195 219.684 330.102 219.432 329.914 219.221C329.738 219.01 329.521 218.828 329.264 218.676C329.006 218.523 328.754 218.395 328.508 218.289L326.557 217.41C325.713 217.035 325.139 216.596 324.834 216.092C324.529 215.588 324.377 215.008 324.377 214.352C324.377 213.73 324.553 213.174 324.904 212.682C325.268 212.178 325.748 211.779 326.346 211.486C326.943 211.193 327.588 211.047 328.279 211.047ZM340.18 221.506V223H334.625V221.506H336.611V212.717H334.625V211.223H340.18V212.717H338.193V221.506H340.18ZM352.344 211.223V212.717H348.283V222.947H346.701V212.717H342.641V211.223H352.344ZM363.77 211.223L359.252 218.166V223H357.547V218.395L353.029 211.223H354.928L358.373 216.777L361.871 211.223H363.77Z" fill="white"/>
<path d="M383.416 253.923L316 292.845L248.584 253.923L248.584 176.077L316 137.155L383.416 176.077L383.416 253.923Z" stroke="white" stroke-width="2"/>
<path d="M122.156 200.297C122.917 200.297 123.536 200.401 124.016 200.609C124.505 200.818 124.932 201.089 125.297 201.422V202.969C125.068 202.802 124.807 202.62 124.516 202.422C124.234 202.224 123.901 202.052 123.516 201.906C123.141 201.75 122.688 201.672 122.156 201.672C121.375 201.672 120.677 201.849 120.062 202.203C119.448 202.557 118.964 203.047 118.609 203.672C118.255 204.286 118.078 204.984 118.078 205.766C118.078 206.547 118.255 207.245 118.609 207.859C118.964 208.474 119.448 208.964 120.062 209.328C120.677 209.682 121.375 209.859 122.156 209.859C122.958 209.859 123.641 209.729 124.203 209.469C124.776 209.198 125.245 208.922 125.609 208.641V210.047C125.245 210.37 124.766 210.651 124.172 210.891C123.589 211.12 122.917 211.234 122.156 211.234C121.365 211.234 120.635 211.094 119.969 210.812C119.302 210.521 118.719 210.125 118.219 209.625C117.719 209.125 117.328 208.547 117.047 207.891C116.776 207.224 116.641 206.516 116.641 205.766C116.641 205.016 116.776 204.312 117.047 203.656C117.328 202.99 117.719 202.406 118.219 201.906C118.719 201.406 119.302 201.016 119.969 200.734C120.635 200.443 121.365 200.297 122.156 200.297ZM132.688 200.297C133.479 200.297 134.208 200.443 134.875 200.734C135.542 201.016 136.125 201.406 136.625 201.906C137.125 202.406 137.51 202.99 137.781 203.656C138.062 204.312 138.203 205.016 138.203 205.766C138.203 206.516 138.062 207.224 137.781 207.891C137.51 208.547 137.125 209.125 136.625 209.625C136.125 210.125 135.542 210.521 134.875 210.812C134.208 211.094 133.479 211.234 132.688 211.234C131.896 211.234 131.167 211.094 130.5 210.812C129.833 210.521 129.25 210.125 128.75 209.625C128.25 209.125 127.859 208.547 127.578 207.891C127.307 207.224 127.172 206.516 127.172 205.766C127.172 205.016 127.307 204.312 127.578 203.656C127.859 202.99 128.25 202.406 128.75 201.906C129.25 201.406 129.833 201.016 130.5 200.734C131.167 200.443 131.896 200.297 132.688 200.297ZM132.688 201.672C131.906 201.672 131.208 201.849 130.594 202.203C129.979 202.557 129.495 203.047 129.141 203.672C128.786 204.286 128.609 204.984 128.609 205.766C128.609 206.547 128.786 207.245 129.141 207.859C129.495 208.474 129.979 208.964 130.594 209.328C131.208 209.682 131.906 209.859 132.688 209.859C133.469 209.859 134.167 209.682 134.781 209.328C135.396 208.964 135.88 208.474 136.234 207.859C136.589 207.245 136.766 206.547 136.766 205.766C136.766 204.984 136.589 204.286 136.234 203.672C135.88 203.047 135.396 202.557 134.781 202.203C134.167 201.849 133.469 201.672 132.688 201.672ZM149.438 200.531V211H148.906L142.109 203.516V211H140.703V200.531H141.234L148.031 208.109V200.531H149.438ZM155.406 200.375C156.021 200.375 156.526 200.464 156.922 200.641C157.328 200.818 157.682 201.005 157.984 201.203V202.656C157.693 202.438 157.339 202.234 156.922 202.047C156.505 201.849 156.052 201.75 155.562 201.75C155.25 201.75 154.922 201.807 154.578 201.922C154.245 202.026 153.964 202.198 153.734 202.438C153.505 202.677 153.391 202.984 153.391 203.359C153.391 203.776 153.542 204.094 153.844 204.312C154.146 204.531 154.51 204.74 154.938 204.938L156.375 205.594C157.094 205.917 157.635 206.276 158 206.672C158.365 207.068 158.547 207.594 158.547 208.25C158.547 208.823 158.38 209.328 158.047 209.766C157.714 210.193 157.276 210.531 156.734 210.781C156.193 211.031 155.599 211.156 154.953 211.156C154.349 211.156 153.792 211.052 153.281 210.844C152.771 210.635 152.328 210.401 151.953 210.141V208.688C152.359 208.969 152.823 209.224 153.344 209.453C153.875 209.672 154.474 209.781 155.141 209.781C155.661 209.781 156.12 209.651 156.516 209.391C156.911 209.13 157.109 208.771 157.109 208.312C157.109 208.052 157.026 207.828 156.859 207.641C156.703 207.453 156.51 207.292 156.281 207.156C156.052 207.021 155.828 206.906 155.609 206.812L153.875 206.031C153.125 205.698 152.615 205.307 152.344 204.859C152.073 204.411 151.938 203.896 151.938 203.312C151.938 202.76 152.094 202.266 152.406 201.828C152.729 201.38 153.156 201.026 153.688 200.766C154.219 200.505 154.792 200.375 155.406 200.375ZM168.422 200.531V201.859H164.812V210.953H163.406V201.859H159.797V200.531H168.422ZM173.375 200.531L178.266 211H176.578L175.484 208.5H170.578L169.469 211H167.781L172.672 200.531H173.375ZM173.047 202.906L171.156 207.172H174.906L173.047 202.906ZM188.875 200.531V211H188.344L181.547 203.516V211H180.141V200.531H180.672L187.469 208.109V200.531H188.875ZM199.688 200.531V201.859H196.078V210.953H194.672V201.859H191.062V200.531H199.688ZM104.867 228.672V230H99.9297V228.672H101.695V220.859H99.9297V219.531H104.867V220.859H103.102V228.672H104.867ZM118.039 219.531V230H116.633V222.422L113.398 225.875H113.023L109.711 222.422V230H108.305V219.531H108.742L113.211 224.328L117.602 219.531H118.039ZM125.648 219.531C126.253 219.531 126.831 219.672 127.383 219.953C127.935 220.224 128.388 220.62 128.742 221.141C129.107 221.651 129.289 222.266 129.289 222.984C129.289 223.599 129.117 224.167 128.773 224.688C128.43 225.208 127.961 225.63 127.367 225.953C126.784 226.266 126.133 226.422 125.414 226.422C124.883 226.422 124.393 226.37 123.945 226.266C123.508 226.151 123.154 226.031 122.883 225.906V230H121.477V219.531H125.648ZM122.883 220.859V224.625C123.164 224.74 123.529 224.849 123.977 224.953C124.435 225.047 124.898 225.094 125.367 225.094C126.159 225.094 126.768 224.891 127.195 224.484C127.633 224.068 127.852 223.568 127.852 222.984C127.852 222.536 127.727 222.156 127.477 221.844C127.237 221.531 126.919 221.292 126.523 221.125C126.128 220.948 125.706 220.859 125.258 220.859H122.883ZM135.805 219.531C136.409 219.531 136.987 219.646 137.539 219.875C138.091 220.094 138.544 220.438 138.898 220.906C139.263 221.365 139.445 221.953 139.445 222.672C139.445 223.318 139.258 223.865 138.883 224.312C138.518 224.76 138.049 225.099 137.477 225.328C136.914 225.547 136.331 225.656 135.727 225.656C135.539 225.656 135.289 225.646 134.977 225.625L139.852 230H137.695L133.195 225.625V230H131.789V219.531H135.805ZM133.195 220.859V224.219C133.539 224.312 133.914 224.385 134.32 224.438C134.727 224.49 135.128 224.516 135.523 224.516C136.315 224.516 136.924 224.349 137.352 224.016C137.789 223.682 138.008 223.234 138.008 222.672C138.008 222.089 137.768 221.641 137.289 221.328C136.82 221.016 136.247 220.859 135.57 220.859H133.195ZM145.523 219.297C146.315 219.297 147.044 219.443 147.711 219.734C148.378 220.016 148.961 220.406 149.461 220.906C149.961 221.406 150.346 221.99 150.617 222.656C150.898 223.312 151.039 224.016 151.039 224.766C151.039 225.516 150.898 226.224 150.617 226.891C150.346 227.547 149.961 228.125 149.461 228.625C148.961 229.125 148.378 229.521 147.711 229.812C147.044 230.094 146.315 230.234 145.523 230.234C144.732 230.234 144.003 230.094 143.336 229.812C142.669 229.521 142.086 229.125 141.586 228.625C141.086 228.125 140.695 227.547 140.414 226.891C140.143 226.224 140.008 225.516 140.008 224.766C140.008 224.016 140.143 223.312 140.414 222.656C140.695 221.99 141.086 221.406 141.586 220.906C142.086 220.406 142.669 220.016 143.336 219.734C144.003 219.443 144.732 219.297 145.523 219.297ZM145.523 220.672C144.742 220.672 144.044 220.849 143.43 221.203C142.815 221.557 142.331 222.047 141.977 222.672C141.622 223.286 141.445 223.984 141.445 224.766C141.445 225.547 141.622 226.245 141.977 226.859C142.331 227.474 142.815 227.964 143.43 228.328C144.044 228.682 144.742 228.859 145.523 228.859C146.305 228.859 147.003 228.682 147.617 228.328C148.232 227.964 148.716 227.474 149.07 226.859C149.424 226.245 149.602 225.547 149.602 224.766C149.602 223.984 149.424 223.286 149.07 222.672C148.716 222.047 148.232 221.557 147.617 221.203C147.003 220.849 146.305 220.672 145.523 220.672ZM162.461 219.531L157.57 230H156.867L151.977 219.531H153.664L157.195 227.625L160.773 219.531H162.461ZM170.836 223.969V225.297H165.742V228.672H171.508V230H164.336V219.531H171.508V220.859H165.742V223.969H170.836ZM184.211 219.531V230H182.805V222.422L179.57 225.875H179.195L175.883 222.422V230H174.477V219.531H174.914L179.383 224.328L183.773 219.531H184.211ZM194.148 223.969V225.297H189.055V228.672H194.82V230H187.648V219.531H194.82V220.859H189.055V223.969H194.148ZM206.523 219.531V230H205.992L199.195 222.516V230H197.789V219.531H198.32L205.117 227.109V219.531H206.523ZM217.336 219.531V220.859H213.727V229.953H212.32V220.859H208.711V219.531H217.336Z" fill="white"/>
<path d="M225.416 253.923L158 292.845L90.584 253.923L90.5841 176.077L158 137.155L225.416 176.077L225.416 253.923Z" stroke="white" stroke-width="2"/>
<path d="M46.627 75.2227C47.3066 75.2227 47.957 75.3809 48.5781 75.6973C49.1992 76.002 49.709 76.4473 50.1074 77.0332C50.5176 77.6074 50.7227 78.2988 50.7227 79.1074C50.7227 79.7988 50.5293 80.4375 50.1426 81.0234C49.7559 81.6094 49.2285 82.084 48.5605 82.4473C47.9043 82.7988 47.1719 82.9746 46.3633 82.9746C45.7656 82.9746 45.2148 82.916 44.7109 82.7988C44.2188 82.6699 43.8203 82.5352 43.5156 82.3945V87H41.9336V75.2227H46.627ZM43.5156 76.7168V80.9531C43.832 81.082 44.2422 81.2051 44.7461 81.3223C45.2617 81.4277 45.7832 81.4805 46.3105 81.4805C47.2012 81.4805 47.8867 81.252 48.3672 80.7949C48.8594 80.3262 49.1055 79.7637 49.1055 79.1074C49.1055 78.6035 48.9648 78.1758 48.6836 77.8242C48.4141 77.4727 48.0566 77.2031 47.6113 77.0156C47.166 76.8164 46.6914 76.7168 46.1875 76.7168H43.5156ZM56.6641 75.2227L62.166 87H60.2676L59.0371 84.1875H53.5176L52.2695 87H50.3711L55.873 75.2227H56.6641ZM56.2949 77.8945L54.168 82.6934H58.3867L56.2949 77.8945ZM67.123 75.0469C67.8145 75.0469 68.3828 75.1465 68.8281 75.3457C69.2852 75.5449 69.6836 75.7559 70.0234 75.9785V77.6133C69.6953 77.3672 69.2969 77.1387 68.8281 76.9277C68.3594 76.7051 67.8496 76.5938 67.2988 76.5938C66.9473 76.5938 66.5781 76.6582 66.1914 76.7871C65.8164 76.9043 65.5 77.0977 65.2422 77.3672C64.9844 77.6367 64.8555 77.9824 64.8555 78.4043C64.8555 78.873 65.0254 79.2305 65.3652 79.4766C65.7051 79.7227 66.1152 79.957 66.5957 80.1797L68.2129 80.918C69.0215 81.2812 69.6309 81.6855 70.041 82.1309C70.4512 82.5762 70.6562 83.168 70.6562 83.9062C70.6562 84.5508 70.4688 85.1191 70.0938 85.6113C69.7188 86.0918 69.2266 86.4727 68.6172 86.7539C68.0078 87.0352 67.3398 87.1758 66.6133 87.1758C65.9336 87.1758 65.3066 87.0586 64.7324 86.8242C64.1582 86.5898 63.6602 86.3262 63.2383 86.0332V84.3984C63.6953 84.7148 64.2168 85.002 64.8027 85.2598C65.4004 85.5059 66.0742 85.6289 66.8242 85.6289C67.4102 85.6289 67.9258 85.4824 68.3711 85.1895C68.8164 84.8965 69.0391 84.4922 69.0391 83.9766C69.0391 83.6836 68.9453 83.4316 68.7578 83.2207C68.582 83.0098 68.3652 82.8281 68.1074 82.6758C67.8496 82.5234 67.5977 82.3945 67.3516 82.2891L65.4004 81.4102C64.5566 81.0352 63.9824 80.5957 63.6777 80.0918C63.373 79.5879 63.2207 79.0078 63.2207 78.3516C63.2207 77.7305 63.3965 77.1738 63.748 76.6816C64.1113 76.1777 64.5918 75.7793 65.1895 75.4863C65.7871 75.1934 66.4316 75.0469 67.123 75.0469ZM76.3164 75.0469C77.0078 75.0469 77.5762 75.1465 78.0215 75.3457C78.4785 75.5449 78.877 75.7559 79.2168 75.9785V77.6133C78.8887 77.3672 78.4902 77.1387 78.0215 76.9277C77.5527 76.7051 77.043 76.5938 76.4922 76.5938C76.1406 76.5938 75.7715 76.6582 75.3848 76.7871C75.0098 76.9043 74.6934 77.0977 74.4355 77.3672C74.1777 77.6367 74.0488 77.9824 74.0488 78.4043C74.0488 78.873 74.2188 79.2305 74.5586 79.4766C74.8984 79.7227 75.3086 79.957 75.7891 80.1797L77.4062 80.918C78.2148 81.2812 78.8242 81.6855 79.2344 82.1309C79.6445 82.5762 79.8496 83.168 79.8496 83.9062C79.8496 84.5508 79.6621 85.1191 79.2871 85.6113C78.9121 86.0918 78.4199 86.4727 77.8105 86.7539C77.2012 87.0352 76.5332 87.1758 75.8066 87.1758C75.127 87.1758 74.5 87.0586 73.9258 86.8242C73.3516 86.5898 72.8535 86.3262 72.4316 86.0332V84.3984C72.8887 84.7148 73.4102 85.002 73.9961 85.2598C74.5938 85.5059 75.2676 85.6289 76.0176 85.6289C76.6035 85.6289 77.1191 85.4824 77.5645 85.1895C78.0098 84.8965 78.2324 84.4922 78.2324 83.9766C78.2324 83.6836 78.1387 83.4316 77.9512 83.2207C77.7754 83.0098 77.5586 82.8281 77.3008 82.6758C77.043 82.5234 76.791 82.3945 76.5449 82.2891L74.5938 81.4102C73.75 81.0352 73.1758 80.5957 72.8711 80.0918C72.5664 79.5879 72.4141 79.0078 72.4141 78.3516C72.4141 77.7305 72.5898 77.1738 72.9414 76.6816C73.3047 76.1777 73.7852 75.7793 74.3828 75.4863C74.9805 75.1934 75.625 75.0469 76.3164 75.0469ZM88.2168 85.5059V87H82.6621V85.5059H84.6484V76.7168H82.6621V75.2227H88.2168V76.7168H86.2305V85.5059H88.2168ZM96.5312 74.959C97.4219 74.959 98.2422 75.123 98.9922 75.4512C99.7422 75.7676 100.398 76.207 100.961 76.7695C101.523 77.332 101.957 77.9883 102.262 78.7383C102.578 79.4766 102.736 80.2676 102.736 81.1113C102.736 81.9551 102.578 82.752 102.262 83.502C101.957 84.2402 101.523 84.8906 100.961 85.4531C100.398 86.0156 99.7422 86.4609 98.9922 86.7891C98.2422 87.1055 97.4219 87.2637 96.5312 87.2637C95.6406 87.2637 94.8203 87.1055 94.0703 86.7891C93.3203 86.4609 92.6641 86.0156 92.1016 85.4531C91.5391 84.8906 91.0996 84.2402 90.7832 83.502C90.4785 82.752 90.3262 81.9551 90.3262 81.1113C90.3262 80.2676 90.4785 79.4766 90.7832 78.7383C91.0996 77.9883 91.5391 77.332 92.1016 76.7695C92.6641 76.207 93.3203 75.7676 94.0703 75.4512C94.8203 75.123 95.6406 74.959 96.5312 74.959ZM96.5312 76.5059C95.6523 76.5059 94.8672 76.7051 94.1758 77.1035C93.4844 77.502 92.9395 78.0527 92.541 78.7559C92.1426 79.4473 91.9434 80.2324 91.9434 81.1113C91.9434 81.9902 92.1426 82.7754 92.541 83.4668C92.9395 84.1582 93.4844 84.709 94.1758 85.1191C94.8672 85.5176 95.6523 85.7168 96.5312 85.7168C97.4102 85.7168 98.1953 85.5176 98.8867 85.1191C99.5781 84.709 100.123 84.1582 100.521 83.4668C100.92 82.7754 101.119 81.9902 101.119 81.1113C101.119 80.2324 100.92 79.4473 100.521 78.7559C100.123 78.0527 99.5781 77.502 98.8867 77.1035C98.1953 76.7051 97.4102 76.5059 96.5312 76.5059ZM115.375 75.2227V87H114.777L107.131 78.5801V87H105.549V75.2227H106.146L113.793 83.748V75.2227H115.375Z" fill="white"/>
<path d="M146.416 117.923L79 156.845L11.584 117.923L11.5841 40.0774L79 1.15475L146.416 40.0774L146.416 117.923Z" stroke="white" stroke-width="2"/>
</svg>
